<svg xmlns="http://www.w3.org/2000/svg" width="217" height="117" fill="none" xmlns:v="https://vecta.io/nano"><path d="M137.707 31.583c.089-.494.178-.849.279-1.089.101-.228.241-.393.418-.482s.456-.127.824-.127h1.938v9.869c0 .215-.051.38-.139.469s-.292.152-.596.177l-.963.089v.925h2.179 1.128 2.179v-.925l-.963-.089c-.317-.025-.519-.089-.608-.177s-.127-.253-.127-.469v-9.856h1.939c.38 0 .658.038.836.127s.316.241.418.481c.088.228.19.595.278 1.09l.127.646h.849v-3.509h-10.984v3.509h.887l.101-.659zm13.822 9.831h1.368v-.849l-.545-.076c-.215-.025-.354-.076-.418-.152s-.089-.215-.089-.393v-5.41c.317-.228.621-.443.913-.583.405-.203.81-.317 1.216-.317.494 0 .849.114 1.077.355s.342.659.342 1.254v4.687c0 .19-.038.317-.114.393s-.216.127-.418.152l-.608.076v.849h1.469 1.204 1.507v-.849l-.583-.076c-.228-.025-.367-.076-.443-.152-.063-.076-.101-.215-.101-.393v-5.321c0-.874-.203-1.495-.608-1.875s-.925-.57-1.571-.57c-.621 0-1.217.165-1.812.494-.418.228-.925.583-1.482 1.001V29.86v-2.078l-3.041.785v.735l.735.152c.165.025.279.076.33.152s.088.19.088.355v9.97c0 .19-.038.317-.114.393s-.228.127-.456.152l-.583.076v.849h1.508 1.229v.013zm9.869-.266c.633.367 1.393.545 2.28.545.747 0 1.432-.114 2.027-.355a4.71 4.71 0 0 0 1.482-.887v-.925c-.367.215-.76.393-1.191.532s-.924.203-1.482.203c-1.026 0-1.824-.342-2.369-1.026-.519-.633-.785-1.533-.811-2.66l6.005-.545c.102-1.229-.126-2.179-.684-2.838-.557-.671-1.406-1.001-2.546-1.001a4.6 4.6 0 0 0-2.319.608c-.71.405-1.266 1.001-1.685 1.786s-.62 1.71-.62 2.774c0 .861.164 1.609.494 2.268a3.42 3.42 0 0 0 1.419 1.52zm.544-7.221c.431-.532 1.014-.798 1.749-.798.532 0 .937.165 1.216.481.291.329.431.735.431 1.241 0 .203-.038.355-.127.418-.076.076-.266.127-.532.165l-3.357.304c.088-.76.278-1.381.62-1.812zm-18.863 15.037h-4.459-1.837v.925l.785.089c.266.025.431.089.519.177.076.089.127.253.127.469v9.388c0 .215-.038.38-.127.469-.076.089-.253.152-.519.177l-.785.089v.925h1.837 1.152 2.281v-.925l-.976-.089c-.329-.025-.545-.089-.633-.177s-.152-.253-.152-.469v-2.977h2.331c.963 0 1.824-.165 2.572-.507s1.317-.824 1.735-1.457c.406-.633.608-1.406.608-2.306 0-1.254-.367-2.192-1.102-2.838-.747-.646-1.862-.963-3.357-.963zm1.938 5.764c-.241.443-.57.773-1.001.988-.43.203-.95.317-1.545.317h-2.179v-6.017h2.255c.671 0 1.229.101 1.634.317a1.93 1.93 0 0 1 .912.988c.19.443.292 1.001.292 1.672-.013.709-.127 1.292-.368 1.736zm6.233 6.93h1.9v-.849l-.747-.076c-.291-.025-.481-.076-.57-.152s-.127-.215-.127-.393V55.78a11.33 11.33 0 0 1 1.482-.697 12.05 12.05 0 0 1 1.875-.494v-2.103c-.342-.025-.696.089-1.089.317-.393.241-.773.557-1.153.963l-1.115 1.318v-.709l-.076-.925-.126-.976-2.864.773v.735l.748.165c.165.025.279.076.329.152s.089.19.089.367v5.498c0 .19-.038.317-.114.393s-.228.127-.456.152l-.608.101v.849h1.52 1.102zm8.07-4.789c-.798.139-1.457.317-1.951.532s-.861.507-1.09.874-.342.811-.342 1.33c0 .709.216 1.279.659 1.698s1.026.621 1.748.621a3.1 3.1 0 0 0 1.343-.304 5.05 5.05 0 0 0 1.217-.823c.088-.076.164-.177.253-.266.051.393.152.709.317.912.24.291.582.431 1.013.431a2.35 2.35 0 0 0 1.001-.228c.329-.152.646-.367.925-.633v-.76a1.65 1.65 0 0 1-.444.127 2.54 2.54 0 0 1-.405.038c-.215 0-.367-.063-.456-.203s-.139-.38-.139-.735l.076-4.143c0-.773-.102-1.368-.317-1.799-.216-.418-.507-.722-.9-.887-.38-.165-.848-.253-1.406-.253a9.76 9.76 0 0 0-2.078.228 16.13 16.13 0 0 0-1.95.545l.038 2.027h1.216l.038-.152c.114-.456.253-.798.405-1.026a1.43 1.43 0 0 1 .608-.519c.241-.114.558-.165.95-.165.507 0 .887.165 1.141.494s.367.874.342 1.647l-.013 1.115-1.799.279zm.76 3.573a2.1 2.1 0 0 1-.849.19c-.456 0-.798-.139-1.039-.418s-.367-.633-.367-1.077.139-.785.418-1.026.798-.418 1.546-.519l1.343-.215-.026 2.318a1.7 1.7 0 0 1-.215.215c-.241.228-.52.405-.811.532zm5.638-5.663c-.38.747-.57 1.622-.57 2.635 0 1.394.342 2.496 1.038 3.307.684.798 1.698 1.204 3.015 1.204.773 0 1.457-.127 2.027-.38s1.052-.57 1.445-.963v-.937c-.304.228-.659.431-1.09.595s-.912.253-1.469.253c-.963 0-1.698-.355-2.205-1.064s-.747-1.71-.747-3.028c0-.963.203-1.71.608-2.23s.963-.773 1.66-.773a1.89 1.89 0 0 1 1.076.317c.304.215.57.583.824 1.115l.076.215.076.215h.925v-2.344c-.317-.139-.684-.241-1.103-.329s-.924-.127-1.494-.127c-.938 0-1.761.203-2.458.595-.71.393-1.254.975-1.634 1.723zm9.058 4.7c0 .862.202 1.482.608 1.862s.988.57 1.748.57a3.47 3.47 0 0 0 1.444-.304c.444-.203.849-.469 1.216-.798v-.937c-.24.177-.519.317-.823.418-.317.114-.659.165-1.039.165-.418 0-.722-.127-.937-.367-.203-.241-.304-.659-.304-1.229v-4.953h2.951v-1.191h-2.913l.278-2.965h-.849c-.24.887-.468 1.52-.671 1.926-.215.393-.481.709-.785.925-.317.215-.76.405-1.331.57v.735h1.432v5.574h-.025zm8.184-8.387c.354 0 .633-.101.848-.291s.317-.456.317-.785c0-.291-.101-.532-.317-.722-.202-.19-.468-.279-.785-.279-.38 0-.672.101-.887.304s-.329.456-.329.76c0 .317.101.57.316.76.216.165.495.253.837.253zm.671 10.565h1.52v-.849l-.608-.076c-.228-.025-.38-.076-.456-.152s-.114-.215-.114-.393v-5.612-2.078l-3.066.785v.722l.748.19c.164.013.278.051.329.127s.089.19.089.367v5.498c0 .19-.038.317-.114.393s-.228.127-.456.152l-.583.076v.849h1.52 1.191zm10.084-2.027a4.45 4.45 0 0 1-1.089.596c-.43.165-.912.253-1.47.253-.963 0-1.697-.355-2.204-1.064s-.748-1.71-.748-3.028c0-.963.203-1.71.608-2.23s.963-.773 1.66-.773a1.89 1.89 0 0 1 1.077.317c.304.215.57.583.823 1.115l.076.215.076.215h.925v-2.344c-.317-.139-.684-.241-1.102-.329s-.925-.127-1.495-.127c-.937 0-1.761.203-2.458.595s-1.228.975-1.621 1.723c-.38.748-.57 1.622-.57 2.635 0 1.393.342 2.496 1.039 3.307.684.798 1.697 1.203 3.015 1.203.772 0 1.457-.127 2.027-.38s1.051-.57 1.444-.963v-.937h-.013zm7.69 2.243c.342 0 .671-.076 1.001-.228s.646-.367.937-.633v-.76c-.139.063-.291.101-.443.127a2.55 2.55 0 0 1-.406.038c-.215 0-.367-.063-.456-.203s-.139-.38-.139-.735l.076-4.143c0-.773-.101-1.368-.317-1.799-.215-.418-.506-.722-.899-.887-.38-.165-.849-.253-1.406-.253a9.76 9.76 0 0 0-2.078.228c-.697.152-1.343.329-1.951.545l.038 2.027h1.216l.038-.152c.114-.456.254-.798.406-1.026a1.42 1.42 0 0 1 .608-.519c.24-.114.557-.165.95-.165.507 0 .887.165 1.14.494s.367.874.342 1.647l-.013 1.115-1.836.266c-.799.139-1.457.317-1.951.532s-.862.507-1.09.874-.342.811-.342 1.33c0 .709.215 1.28.659 1.698s1.026.621 1.748.621a3.1 3.1 0 0 0 1.343-.304 5.02 5.02 0 0 0 1.216-.823c.089-.076.165-.177.253-.266.051.393.152.709.317.912.266.304.596.443 1.039.443zm-2.407-1.432a2.1 2.1 0 0 1-.849.19c-.456 0-.798-.139-1.039-.418s-.367-.633-.367-1.077.139-.785.418-1.026.798-.418 1.558-.519l1.343-.215-.025 2.318a1.78 1.78 0 0 1-.216.215c-.253.228-.532.405-.823.532zm8.665.293c-.228-.025-.38-.076-.456-.152s-.114-.215-.114-.393V50.118 48.04l-3.04.785v.735l.734.152c.165.025.279.076.33.152s.089.19.089.355v9.97c0 .19-.038.317-.114.393s-.228.127-.457.152l-.582.076v.849h1.507 1.191 1.546v-.849l-.634-.076zm-61.746 14.683c-.38-.203-.811-.317-1.267-.393.646-.228 1.165-.558 1.52-.988.456-.545.671-1.178.671-1.938 0-.963-.316-1.672-.937-2.166-.621-.481-1.571-.722-2.85-.722h-4.434-1.837v.925l.785.089c.266.025.431.089.519.177.076.089.127.253.127.469v9.387c0 .215-.038.38-.127.469-.076.089-.253.152-.519.177l-.785.089v.925h1.837 4.472c1 0 1.836-.165 2.495-.481s1.153-.76 1.457-1.305c.304-.557.456-1.178.456-1.875 0-.659-.139-1.229-.431-1.71a2.67 2.67 0 0 0-1.152-1.127zm-1.749-4.624c.355.367.532.925.532 1.698 0 .76-.19 1.343-.557 1.748s-.899.608-1.584.608h-2.28v-4.599h2.141c.824 0 1.406.177 1.748.545zm.482 9.438c-.393.405-1.014.621-1.875.621h-2.496v-5.004h2.369c.887 0 1.546.203 1.964.621s.633 1.064.633 1.938c0 .811-.202 1.419-.595 1.824zm11.845 1.886a2.42 2.42 0 0 0 1.026-.228c.329-.152.646-.367.925-.633v-.76a1.77 1.77 0 0 1-.418.127c-.14.025-.279.038-.406.038-.24 0-.405-.063-.494-.203s-.139-.38-.139-.735v-6.778h-1.546-1.469v.849l.583.076c.228.025.367.076.443.152.063.076.101.215.101.393v5.409c-.304.241-.608.456-.899.595-.393.203-.798.317-1.191.317-.456 0-.785-.127-1.001-.367s-.329-.684-.329-1.305v-6.132h-1.546-1.482v.849l.595.076c.216.025.355.076.419.152s.101.215.101.393v5.295c0 .874.203 1.495.608 1.862.405.38.912.557 1.533.557.595 0 1.165-.152 1.735-.469.418-.228.913-.57 1.457-1.001.051.443.165.785.355 1.001.266.329.608.469 1.039.469zm8.285-5.143c-.393-.203-.925-.405-1.571-.621l-1.089-.456c-.266-.114-.482-.266-.646-.456a1.06 1.06 0 0 1-.254-.71 1.12 1.12 0 0 1 .418-.912c.279-.228.634-.342 1.077-.342.545 0 .963.127 1.28.38s.57.684.772 1.292h.887v-2.002c-.316-.152-.722-.266-1.216-.355a8.87 8.87 0 0 0-1.545-.139c-.558 0-1.09.101-1.597.291-.519.19-.937.494-1.279.899s-.507.912-.507 1.533c0 .558.127 1.001.38 1.343s.557.608.912.785.836.367 1.444.583l1.191.443c.279.139.52.317.722.557s.304.545.304.925c0 .405-.139.709-.43.925s-.684.317-1.204.317c-.595 0-1.115-.165-1.545-.507s-.735-.861-.925-1.558h-.9v2.306c.418.203.912.355 1.495.494.583.127 1.204.19 1.85.19.659 0 1.254-.114 1.773-.342a2.99 2.99 0 0 0 1.242-.975c.304-.418.456-.925.456-1.52 0-.608-.152-1.115-.443-1.495-.317-.38-.659-.671-1.052-.874zm5.663-5.928c.215-.19.317-.456.317-.785 0-.291-.102-.532-.317-.722-.203-.19-.469-.279-.786-.279-.38 0-.671.101-.886.304s-.33.456-.33.76c0 .317.102.57.317.76s.494.279.823.279c.368-.025.659-.127.862-.317zm-1.824 9.78c-.076.076-.228.127-.456.152l-.608.076v.849h1.52 1.191 1.52v-.849l-.608-.076c-.228-.025-.38-.076-.456-.152s-.114-.215-.114-.393v-5.612-2.078l-3.066.785v.722l.747.19c.165.013.279.051.33.127s.088.19.088.367v5.498c.026.177-.012.304-.088.393zm7.525 0c-.064-.076-.089-.215-.089-.393v-5.409c.317-.228.621-.431.9-.57.418-.203.823-.317 1.241-.317.482 0 .824.114 1.052.355s.342.659.342 1.267v4.675c0 .19-.026.317-.089.393s-.203.127-.431.152l-.582.076v.849h1.482 1.165 1.546v-.849l-.621-.076c-.228-.025-.38-.076-.456-.152s-.114-.215-.114-.393v-5.321c0-.874-.203-1.495-.595-1.875s-.925-.57-1.571-.57c-.621 0-1.217.165-1.812.494-.418.228-.937.595-1.508 1.026l-.038-.456-.126-.975-2.863.773v.735l.747.165c.165.025.279.076.33.152s.088.19.088.367v5.498c0 .19-.038.317-.114.393s-.228.127-.456.152l-.608.076v.849h1.52 1.204 1.406v-.849l-.545-.076c-.19-.038-.342-.089-.405-.165zm14.67-7.144c-.557-.671-1.406-1.001-2.546-1.001a4.6 4.6 0 0 0-2.319.608c-.71.405-1.267 1.001-1.685 1.786s-.62 1.71-.62 2.774c0 .861.164 1.609.494 2.268a3.62 3.62 0 0 0 1.444 1.52c.634.367 1.393.545 2.28.545.748 0 1.432-.114 2.027-.355.596-.228 1.09-.532 1.482-.887v-.925a5.98 5.98 0 0 1-1.19.532c-.431.139-.925.203-1.483.203-1.026 0-1.824-.342-2.369-1.026-.519-.633-.785-1.533-.81-2.66l6.004-.545c.076-1.216-.152-2.166-.709-2.838zm-1.419 2.09c-.076.076-.266.127-.532.165l-3.357.304c.063-.785.266-1.394.608-1.824.431-.532 1.013-.798 1.748-.798.532 0 .938.165 1.216.481.292.329.431.735.431 1.242.013.215-.025.355-.114.431zm8.881 1.202c-.393-.203-.925-.405-1.571-.621l-1.09-.456c-.266-.114-.481-.266-.646-.456a1.06 1.06 0 0 1-.253-.71c0-.38.139-.684.418-.912s.633-.342 1.077-.342c.545 0 .963.127 1.279.38s.57.684.773 1.292h.887v-2.002c-.317-.152-.722-.266-1.229-.355a8.87 8.87 0 0 0-1.545-.139c-.558 0-1.09.101-1.597.291-.519.19-.937.494-1.279.899s-.507.912-.507 1.533c0 .558.127 1.001.38 1.343s.558.608.912.785.836.367 1.444.583l1.191.443c.279.139.52.317.722.557s.304.545.304.925c0 .405-.139.709-.43.925s-.684.317-1.204.317c-.595 0-1.115-.165-1.545-.507s-.735-.861-.925-1.558h-.9v2.306c.418.203.913.355 1.495.494.583.127 1.204.19 1.85.19.659 0 1.254-.114 1.773-.342a2.99 2.99 0 0 0 1.242-.975c.304-.418.456-.925.456-1.52 0-.608-.152-1.115-.443-1.495-.304-.38-.646-.671-1.039-.874zm8.222 0c-.393-.203-.925-.405-1.571-.621l-1.09-.456c-.266-.114-.481-.266-.646-.456a1.06 1.06 0 0 1-.253-.71c0-.38.139-.684.418-.912s.633-.342 1.077-.342c.545 0 .963.127 1.279.38s.57.684.773 1.292h.887v-2.002c-.317-.152-.722-.266-1.216-.355-.507-.089-1.014-.139-1.546-.139-.557 0-1.089.101-1.596.291a2.98 2.98 0 0 0-1.28.899c-.342.405-.506.912-.506 1.533 0 .558.126 1.001.38 1.343s.557.608.912.785.836.367 1.444.583l1.191.443c.279.139.519.317.722.557s.304.545.304.925c0 .405-.139.709-.431.925s-.684.317-1.203.317c-.596 0-1.115-.165-1.546-.507s-.735-.861-.925-1.558h-.899v2.306c.418.203.912.355 1.495.494.583.127 1.203.19 1.849.19.659 0 1.255-.114 1.774-.342s.938-.557 1.242-.975.456-.925.456-1.52c0-.608-.152-1.115-.444-1.495a3.4 3.4 0 0 0-1.051-.874zm-62.14 18.434a22.67 22.67 0 0 0-2.052-.937l-1.558-.684c-.393-.19-.71-.443-.963-.747s-.38-.671-.38-1.09a1.65 1.65 0 0 1 .633-1.343c.418-.342.963-.519 1.622-.519.519 0 .975.101 1.393.291a2.62 2.62 0 0 1 1.039.861c.278.38.456.836.545 1.394h.849v-2.926c-.444-.165-.976-.291-1.596-.418-.634-.114-1.255-.177-1.901-.177-.76 0-1.482.139-2.166.405-.671.266-1.229.684-1.66 1.229-.43.557-.633 1.254-.633 2.103 0 .671.165 1.242.494 1.685a3.77 3.77 0 0 0 1.216 1.064 22.47 22.47 0 0 0 1.888.862c.697.253 1.254.507 1.672.722.418.228.76.507 1.026.861.266.342.406.773.406 1.292 0 .659-.216 1.165-.634 1.533s-1.026.532-1.786.532c-.57 0-1.077-.089-1.533-.292-.456-.19-.849-.468-1.165-.823a3.32 3.32 0 0 1-.685-1.242l-.152-.684h-.848v3.244c.57.24 1.216.443 1.951.595s1.52.228 2.381.228c.9 0 1.685-.152 2.357-.456a3.6 3.6 0 0 0 1.583-1.356c.38-.595.57-1.279.57-2.065s-.19-1.431-.557-1.938c-.38-.532-.824-.925-1.356-1.203zm8.146 5.561c-.963 0-1.697-.354-2.204-1.064s-.748-1.71-.748-3.028c0-.963.203-1.71.609-2.23s.962-.773 1.659-.773a1.89 1.89 0 0 1 1.077.317c.304.215.57.583.823 1.115l.076.215c.026.063.051.139.076.215h.925v-2.331c-.316-.139-.684-.241-1.102-.329s-.925-.127-1.495-.127c-.937 0-1.761.203-2.457.595s-1.229.976-1.622 1.723c-.38.748-.57 1.622-.57 2.635 0 1.394.342 2.495 1.039 3.306.684.798 1.697 1.204 3.015 1.204.773 0 1.457-.127 2.027-.38s1.051-.571 1.444-.963v-.938a4.44 4.44 0 0 1-1.09.596c-.443.152-.924.24-1.482.24zm12.086.089c-.063-.077-.101-.216-.101-.393v-5.321c0-.874-.203-1.495-.608-1.875s-.925-.57-1.571-.57c-.621 0-1.216.165-1.812.494-.418.228-.925.583-1.482 1.001v-3.8-2.078l-3.041.785v.735l.735.152c.165.025.279.076.33.152s.088.19.088.355v9.97c0 .19-.038.316-.114.393s-.228.126-.456.152l-.583.076v.848h1.508 1.216 1.368v-.848l-.544-.076c-.216-.026-.355-.076-.418-.152s-.089-.216-.089-.393v-5.41c.317-.228.621-.443.912-.583.405-.203.811-.317 1.216-.317.494 0 .849.114 1.077.355s.342.659.342 1.254v4.687c0 .19-.038.317-.114.393s-.215.127-.418.152l-.608.076v.849h1.47 1.203 1.508v-.849l-.583-.076c-.216 0-.368-.051-.431-.139zm9.299-7.551c-.646-.393-1.432-.583-2.356-.583-.963 0-1.825.203-2.56.596s-1.317.975-1.735 1.723-.621 1.609-.621 2.597c0 .912.165 1.71.507 2.395a3.8 3.8 0 0 0 1.482 1.609c.646.38 1.444.582 2.369.582.976 0 1.837-.202 2.572-.608a4.27 4.27 0 0 0 1.71-1.71c.405-.735.608-1.596.608-2.597 0-.9-.165-1.685-.507-2.382-.316-.697-.81-1.242-1.469-1.622zm-.304 6.423c-.19.519-.482.899-.874 1.165-.393.253-.849.38-1.343.38-.52 0-.963-.152-1.33-.456-.38-.304-.684-.747-.913-1.356-.228-.595-.367-1.406-.418-2.432-.038-.735.038-1.355.241-1.862s.494-.887.874-1.14.836-.38 1.343-.38c.532 0 .976.152 1.356.456s.671.748.899 1.343c.216.595.355 1.394.406 2.407.025.735-.051 1.356-.241 1.875zm10.895-6.423c-.646-.393-1.432-.583-2.357-.583-.962 0-1.824.203-2.559.596s-1.317.975-1.735 1.723-.621 1.609-.621 2.597c0 .912.165 1.71.507 2.395a3.8 3.8 0 0 0 1.482 1.609c.646.38 1.444.582 2.369.582.976 0 1.837-.202 2.572-.608a4.27 4.27 0 0 0 1.71-1.71c.405-.735.608-1.596.608-2.597 0-.9-.165-1.685-.507-2.382-.316-.697-.823-1.242-1.469-1.622zm-.304 6.423c-.19.519-.482.899-.874 1.165-.393.253-.849.38-1.343.38-.52 0-.963-.152-1.33-.456-.381-.304-.685-.747-.913-1.356-.228-.595-.367-1.406-.418-2.432-.038-.735.038-1.355.241-1.862s.494-.887.874-1.14.836-.38 1.343-.38c.532 0 .976.152 1.356.456s.671.748.899 1.343c.215.595.355 1.394.405 2.407.026.735-.05 1.356-.24 1.875zm6.448 1.128c-.076-.077-.114-.216-.114-.393V90.593v-2.078l-3.04.785v.735l.734.152c.165.025.279.076.33.152s.088.19.088.355v9.97c0 .19-.038.316-.114.393s-.228.126-.456.152l-.582.076v.848h1.507 1.191 1.546v-.848l-.621-.076c-.241-.013-.393-.064-.469-.152zm4.13-1.089c-.431 0-.76.114-1.001.329s-.367.52-.367.9c0 .342.114.62.354.823s.545.317.925.317c.431 0 .76-.114.988-.33s.342-.519.342-.886c0-.355-.114-.634-.342-.849-.228-.203-.532-.304-.899-.304z" fill="#ef3f28"/><path d="M118.413 9.16v93.254" stroke="#ef3f28" stroke-width=".746"/><path d="M42.87 99.321c-.165-.165-.367-.456-.608-.9s-.519-1.064-.849-1.875l-1.203-3.079-11.224-31.253-5.676 1.267-.76 3.294-1.052 3.231-8.196 23.526-1.571 4.079c-.405.862-.811 1.457-1.203 1.786l-2.116.545a17.93 17.93 0 0 0-.127 2.116h11.769c0-.761-.038-1.47-.127-2.116l-3.497-.608c-.203-.127-.342-.304-.418-.545s-.127-.545-.127-.9c0-.279.076-.798.241-1.533l.57-2.407.709-2.749h14.29l1.026 2.901.722 2.382c.165.621.241 1.204.241 1.723 0 .279-.025.519-.063.722s-.139.342-.304.418l-3.319.608c-.076.647-.127 1.343-.127 2.115h15.57c0-.76-.038-1.469-.127-2.115l-2.445-.633zM18.268 88.464l5.954-18.407 6.524 18.407H18.268zm41.084-19.737l.177-2.078c.076-.38.203-.671.367-.874l3.383-.659c.076-.646.127-1.343.127-2.116H47.697c0 .76.038 1.47.127 2.116l3.383.659c.165.203.279.494.367.874.076.38.139 1.077.177 2.078l.063 4.523v18.521l-.063 4.497-.177 2.078c-.076.405-.203.709-.367.9l-3.383.659a17.93 17.93 0 0 0-.127 2.115h15.684c0-.76-.038-1.469-.127-2.115l-3.383-.659c-.165-.203-.279-.507-.367-.9-.076-.405-.139-1.09-.177-2.078l-.063-4.497V73.263l.089-4.535zM98.296 85.5c-.925-1.33-2.166-2.356-3.75-3.104-1.571-.748-3.344-1.242-5.321-1.482v-.241c1.723-.367 3.205-.899 4.472-1.634 1.254-.722 2.242-1.66 2.964-2.8.71-1.14 1.064-2.546 1.064-4.193 0-1.774-.456-3.243-1.356-4.409s-2.103-2.09-3.623-2.774c-1.508-.684-3.205-1.165-5.093-1.444a39.16 39.16 0 0 0-5.726-.418h-16.05c0 .76.038 1.47.127 2.116l3.142.659c.165.203.304.494.405.874s.177 1.077.215 2.078l.063 4.523v18.521l-.063 4.497c-.038.988-.114 1.685-.215 2.078-.101.405-.241.709-.405.9l-3.142.659c-.089.647-.127 1.343-.127 2.115h17.622c2.268 0 4.383-.203 6.36-.608s3.699-1.051 5.169-1.964a9.66 9.66 0 0 0 3.433-3.535c.823-1.444 1.229-3.218 1.229-5.308-.013-2.065-.469-3.775-1.393-5.105zM77.582 65.294h3.902c2.394 0 4.358.633 5.891 1.9s2.293 3.243 2.293 5.942c0 2.496-.633 4.333-1.888 5.523s-3.129 1.786-5.6 1.786h-4.599V65.294zm11.832 32.343c-1.431 1.406-3.674 2.116-6.74 2.116h-2.711c-.671-.165-1.178-.456-1.507-.874-.342-.418-.57-1.178-.697-2.268s-.19-2.698-.19-4.827v-9.109h4.409c1.85 0 3.484.279 4.915.849a7.11 7.11 0 0 1 3.395 2.711c.836 1.242 1.254 2.914 1.254 5.004.013 2.85-.697 4.979-2.128 6.398zM75.074 12.39l-9.362-3.231-10.11 17.521L45.493 9.159l-9.375 3.218L55.59 46.139 75.074 12.39zm-43.859 2.762l-7.512 6.436 9.945 17.217-20.156-.013-2.027 9.73 39.032.013-19.282-33.382zM99.638 48.52l-2.027-9.717-20.105.013 9.92-17.204-7.512-6.436-19.269 33.356 38.994-.013zm-47.469 6.575c0 1.888 1.533 3.42 3.421 3.42s3.42-1.533 3.42-3.42-1.533-3.421-3.42-3.421-3.421 1.533-3.421 3.421z" fill="#ef3f29"/></svg>